<svg width="114" height="35" viewBox="0 0 114 35" fill="none" xmlns="http://www.w3.org/2000/svg">
<path d="M21.2356 13.7506C22.9643 15.8964 24 18.6307 24 21.6085C24 28.5038 18.4466 34.0935 11.5961 34.0935C6.29976 34.0935 1.7787 30.7522 0 26.0496C1.85992 29.1595 5.2463 31.2398 9.11538 31.2398C14.9872 31.2398 19.7473 26.4486 19.7473 20.5384C19.7473 17.0741 18.1118 13.9943 15.5757 12.0385C13.9986 10.523 13.9986 10.523 13.0853 9.21258C12.3627 7.92125 11.9506 6.43052 11.9506 4.84289C11.9506 3.05745 12.4719 1.39456 13.3696 0C13.3686 0.0684243 13.3681 0.136965 13.3681 0.205619C13.3681 4.82293 15.5471 8.92799 18.9264 11.5359C19.8329 12.2054 20.5216 12.8644 21.2356 13.7506Z" fill="url(#paint0_linear_526_10541)"/>
<path d="M0.363139 18.4421C0.127045 19.2107 0 20.0269 0 20.8727C0 25.449 3.71934 29.1589 8.30737 29.1589C8.53108 29.1589 8.75272 29.15 8.97196 29.1327V29.1261C5.61357 28.7935 2.99066 25.9673 2.99066 22.5299C2.99066 20.1652 5.96283 15.9023 6.94734 12.697C7.18343 11.9284 7.31047 11.1122 7.31047 10.2664C7.31047 9.08846 7.06404 7.9679 6.61979 6.95325C6.63708 7.17152 6.64588 7.39215 6.64588 7.61486C6.64588 10.2934 5.37169 12.6751 3.39493 14.1898C0.856819 16.5652 0.634219 17.5595 0.363139 18.4421Z" fill="url(#paint1_linear_526_10541)"/>
<g clip-path="url(#clip0_526_10541)">
<path fill-rule="evenodd" clip-rule="evenodd" d="M6.16846 15.4766H6.80942C7.64636 15.4766 8.43954 15.8505 8.97215 16.4961L11.7758 19.8945L10.7945 21.084L6.16846 15.4766ZM11.7758 22.2734L14.5797 25.6721C15.1123 26.3177 15.9055 26.6916 16.7424 26.6916H17.3834L12.7571 21.084L11.7758 22.2734Z" fill="#207FEE"/>
<path d="M6.30859 26.6915L11.8456 19.98L12.0559 20.2349L6.99679 26.3671C6.82731 26.5726 6.57491 26.6915 6.30859 26.6915V26.6915Z" fill="#207FEE"/>
<path d="M17.2424 15.4766L11.7054 22.1882L11.4951 21.9333L16.5542 15.801C16.7237 15.5956 16.9761 15.4766 17.2424 15.4766V15.4766Z" fill="#207FEE"/>
</g>
<path d="M33.415 14.0889H35.1816V19.4238H41.8965V14.0889H43.6631V27H41.8965V20.9619H35.1816V27H33.415V14.0889ZM52.0479 17.5869H53.7969C53.5742 18.1904 53.0791 19.5674 52.3115 21.7178C51.7373 23.335 51.2568 24.6533 50.8701 25.6729C49.9561 28.0752 49.3115 29.54 48.9365 30.0674C48.5615 30.5947 47.917 30.8584 47.0029 30.8584C46.7803 30.8584 46.6074 30.8496 46.4844 30.832C46.3672 30.8145 46.2207 30.7822 46.0449 30.7354V29.2939C46.3203 29.3701 46.5195 29.417 46.6426 29.4346C46.7656 29.4521 46.874 29.4609 46.9678 29.4609C47.2607 29.4609 47.4746 29.4111 47.6094 29.3115C47.75 29.2178 47.8672 29.1006 47.9609 28.96C47.9902 28.9131 48.0957 28.6729 48.2773 28.2393C48.459 27.8057 48.5908 27.4834 48.6729 27.2725L45.1924 17.5869H46.9854L49.5078 25.251L52.0479 17.5869ZM56.1699 22.4033C56.1699 23.4111 56.3838 24.2549 56.8115 24.9346C57.2393 25.6143 57.9248 25.9541 58.8682 25.9541C59.6006 25.9541 60.2012 25.6406 60.6699 25.0137C61.1445 24.3809 61.3818 23.4756 61.3818 22.2979C61.3818 21.1084 61.1387 20.2295 60.6523 19.6611C60.166 19.0869 59.5654 18.7998 58.8506 18.7998C58.0537 18.7998 57.4062 19.1045 56.9082 19.7139C56.416 20.3232 56.1699 21.2197 56.1699 22.4033ZM58.5518 17.4199C59.2725 17.4199 59.876 17.5723 60.3623 17.877C60.6436 18.0527 60.9629 18.3604 61.3203 18.7998V14.0449H62.8408V27H61.417V25.6904C61.0479 26.2705 60.6113 26.6895 60.1074 26.9473C59.6035 27.2051 59.0264 27.334 58.376 27.334C57.3271 27.334 56.4189 26.8945 55.6514 26.0156C54.8838 25.1309 54.5 23.9561 54.5 22.4912C54.5 21.1201 54.8486 19.9336 55.5459 18.9316C56.249 17.9238 57.251 17.4199 58.5518 17.4199ZM65.2314 17.5869H66.7344V19.2129C66.8574 18.8965 67.1592 18.5127 67.6396 18.0615C68.1201 17.6045 68.6738 17.376 69.3008 17.376C69.3301 17.376 69.3799 17.3789 69.4502 17.3848C69.5205 17.3906 69.6406 17.4023 69.8105 17.4199V19.0898C69.7168 19.0723 69.6289 19.0605 69.5469 19.0547C69.4707 19.0488 69.3857 19.0459 69.292 19.0459C68.4951 19.0459 67.8828 19.3037 67.4551 19.8193C67.0273 20.3291 66.8135 20.918 66.8135 21.5859V27H65.2314V17.5869ZM74.917 25.9805C75.9658 25.9805 76.6836 25.585 77.0703 24.7939C77.4629 23.9971 77.6592 23.1123 77.6592 22.1396C77.6592 21.2607 77.5186 20.5459 77.2373 19.9951C76.792 19.1279 76.0244 18.6943 74.9346 18.6943C73.9678 18.6943 73.2646 19.0635 72.8252 19.8018C72.3857 20.54 72.166 21.4307 72.166 22.4736C72.166 23.4756 72.3857 24.3105 72.8252 24.9785C73.2646 25.6465 73.9619 25.9805 74.917 25.9805ZM74.9785 17.3145C76.1914 17.3145 77.2168 17.7188 78.0547 18.5273C78.8926 19.3359 79.3115 20.5254 79.3115 22.0957C79.3115 23.6133 78.9424 24.8672 78.2041 25.8574C77.4658 26.8477 76.3203 27.3428 74.7676 27.3428C73.4727 27.3428 72.4443 26.9062 71.6826 26.0332C70.9209 25.1543 70.54 23.9766 70.54 22.5C70.54 20.918 70.9414 19.6582 71.7441 18.7207C72.5469 17.7832 73.625 17.3145 74.9785 17.3145ZM82.5195 27H80.4102L85.0332 20.3818L80.7002 14.0889H82.8887L86.1846 19.0283L89.4541 14.0889H91.5371L87.2041 20.3818L91.748 27H89.5771L86.0967 21.6914L82.5195 27ZM104.07 21.709L102.11 16.0049L100.027 21.709H104.07ZM101.196 14.0889H103.174L107.858 27H105.942L104.633 23.1328H99.5264L98.1289 27H96.3359L101.196 14.0889ZM109.845 14.0889H111.611V27H109.845V14.0889Z" fill="#207FEE"/>
<defs>
<linearGradient id="paint0_linear_526_10541" x1="12" y1="0" x2="12" y2="34.0935" gradientUnits="userSpaceOnUse">
<stop stop-color="#BFDCFF"/>
<stop offset="1" stop-color="#207FEE"/>
</linearGradient>
<linearGradient id="paint1_linear_526_10541" x1="4.48598" y1="6.95325" x2="4.48598" y2="29.1589" gradientUnits="userSpaceOnUse">
<stop stop-color="#BFDCFF"/>
<stop offset="1" stop-color="#207FEE"/>
</linearGradient>
<clipPath id="clip0_526_10541">
<rect width="11.215" height="11.215" fill="white" transform="translate(6.16846 15.4766)"/>
</clipPath>
</defs>
</svg>
